<?xml version="1.0" encoding="utf-8"?>
<!-- Generator: Adobe Illustrator 16.0.0, SVG Export Plug-In . SVG Version: 6.00 Build 0)  -->
<!DOCTYPE svg PUBLIC "-//W3C//DTD SVG 1.0//EN" "http://www.w3.org/TR/2001/REC-SVG-20010904/DTD/svg10.dtd">
<svg version="1.0" id="Layer_1" xmlns="http://www.w3.org/2000/svg" xmlns:xlink="http://www.w3.org/1999/xlink" x="0px" y="0px"
	 width="800px" height="800px" viewBox="0 0 800 800" enable-background="new 0 0 800 800" xml:space="preserve">
<g>
	<path fill-rule="evenodd" clip-rule="evenodd" fill="#FFFFFF" d="M204.114,355.026c-0.976,2.247-1.951,4.493-2.927,6.74
		c0.198,0.223,0.396,0.445,0.595,0.668c3.701-4.159,8.483-4.146,13.335-4.05c4.781,0.096,9.572,0.176,14.346-0.034
		c2.995-0.132,3.791,1.117,3.785,3.868c-0.056,26.13-0.032,52.262-0.036,78.395c0,3.057-0.849,5.729-3.415,7.68
		c-0.471,0.357-0.676,1.066-1.2,1.943c5.482,0,10.557,0,15.63,0c0.195-0.301,0.392-0.602,0.588-0.902
		c-6.382-3.195-4.776-8.857-4.767-13.875c0.039-19.941,0.259-39.882,0.398-59.823c0.031-4.433,0.108-8.869-0.021-13.298
		c-0.085-2.9,0.763-4.189,3.976-4.005c4.885,0.28,9.796,0.072,14.695,0.074c6.785,0,6.771,0.004,8.082,6.655
		c5.271,26.749,10.534,53.5,15.849,80.24c0.841,4.23,2.299,5.457,5.658,5.223c3.382-0.236,4.061-2.881,4.377-5.428
		c1.307-10.521,2.428-21.066,3.657-31.6c0.919-7.875,1.9-15.743,2.854-23.615c0.291-0.009,0.582-0.019,0.872-0.027
		c0.338,2.585,0.735,5.164,1.004,7.757c1.656,15.989,3.254,31.981,4.956,47.964c0.215,2.012,0.359,4.514,3.337,4.477
		c2.746-0.037,2.805-2.264,3.087-4.254c3.452-24.346,6.724-48.719,10.498-73.014c1.114-7.174,0.236-15.099,6.19-21.283
		c-4.785-1.303-9.213-1.467-14.699,0.505c4.883,2.871,5.566,6.545,4.816,11.106c-2.835,17.248-5.394,34.541-8.061,51.816
		c-0.275,1.777-0.588,3.547-0.883,5.32c-1.743-8.424-2.69-16.809-3.581-25.201c-1.437-13.558-2.774-27.126-4.358-40.666
		c-0.139-1.188-1.784-2.198-2.73-3.292c-0.948,1.138-2.592,2.19-2.74,3.424c-2.021,16.77-3.823,33.563-5.701,50.351
		c-0.936,8.367-1.915,16.73-2.874,25.094c-1.137-1.09-1.522-2.258-1.763-3.455c-3.998-19.871-8.045-39.732-11.917-59.628
		c-0.994-5.109-3.296-10.468,2.243-15.559c-2.725-0.185-4.315-0.383-5.908-0.385c-17.265-0.022-34.53,0.036-51.795-0.078
		c-2.241-0.016-4.674-0.491-6.656-1.479c-1.757-0.876-2.686-0.697-3.874,0.6c-1.628,1.776-3.363,3.454-5.053,5.175
		c0.654-1.719,1.309-3.439,1.793-4.712c-15.073,0.377-29.627,0.739-44.182,1.104c-0.125,0.328-0.251,0.657-0.376,0.987
		c1.161,1.361,2.208,2.847,3.506,4.063c3.948,3.703,3.239,12.085-1.351,14.911c-4.55,2.8-9.49,3.102-14.492,1.831
		c-5.854-1.487-11.706-2.061-17.643-0.848c-2.468,0.504-4.874,1.313-7.701,2.093c0-5.402,0-10.451,0-15.697
		c8.028,0.018,15.637-1.863,22.045,3.928c3.997-3.588,7.716-7.047,8.839-11.695c-14.635,0.26-28.945,0.514-44.432,0.788
		c6.103,4.809,5.618,10.648,5.619,16.353c0.001,19.598,0.001,39.194,0,58.79c0,7.084-5.868,15.68-12.816,16.48
		c-8.013,0.922-16.212,0.215-24.435,0.215c-0.055-0.639-0.157-1.324-0.164-2.012c-0.206-19.588-0.313-39.176-0.657-58.761
		c-0.097-5.494,1.702-9.608,6.189-12.866c6.795-4.932,12.099-11.263,16.02-18.699c0.588-1.114,0.789-2.434,1.169-3.658
		c-7.504,7.011-12.453,16.521-23.234,20.395c0-3.692-0.565-6.641,0.163-9.223c0.693-2.456,2.738-4.531,4.406-7.109
		c-5.901-0.962-11.297-1.46-16.813,0.663c4.299,5.211,4.299,5.211,5.079,12.552c0.024,0.232,0.048,0.464,0.079,0.695
		c0.859,6.348-0.087,8.227-5.911,11.025c-7.243,3.482-14.534,6.864-21.81,10.278c-9.954,4.672-19.891,9.507-27.229,17.97
		c-2.808,3.236-5.02,7.307-6.407,11.373c-1.494,4.381-0.992,9.07,2.67,12.682c2.052,2.023,4.404,2.756,6.962,1.676
		c-2.381-1.559-5.102-2.547-6.583-4.484c-2.512-3.283-1.617-7.139,0.268-10.559c3.574-6.484,8.525-11.703,15.229-14.971
		c13.19-6.429,26.452-12.711,39.694-19.032c0.809-0.386,1.705-0.588,2.886-0.985c0.236,1.271,0.577,2.264,0.58,3.257
		c0.053,19.013,0.09,38.024,0.063,57.036c-0.005,3.063-1.177,5.645-3.866,7.436c-0.71,0.473-1.145,1.359-2.18,2.646
		c13.296,0,25.654-0.123,38.007,0.07c3.865,0.061,6.048-1.365,7.452-4.885c1.057-2.646,2.69-5.063,4.358-8.113
		c2.465,5.953-2.607,8.58-4.175,12.926c1.942,0,3.21,0,4.477,0c8.982,0,18.05-0.773,26.922,0.215
		c9.222,1.025,14.567-2.281,17.335-10.748c0.46-1.406,1.071-2.764,1.612-4.143c-0.279-0.188-0.56-0.375-0.839-0.564
		c-1.832,1.381-3.725,2.689-5.48,4.158c-2.946,2.469-6.115,4.148-10.119,4.055c-6.179-0.145-12.36-0.168-18.541-0.135
		c-2.271,0.012-3.131-0.992-3.129-3.162c0.022-19.365,0.021-38.729,0.011-58.091c-0.001-2.366,1.253-3.557,3.419-4.199
		c4.395-1.303,8.52-0.417,12.595,1.271c8.19,3.393,16.14,2.793,23.863-1.473c1.088-0.601,2.206-1.145,3.889-2.013
		c0.156,2.368,0.376,4.168,0.379,5.968c0.025,18.431-0.01,36.862,0.033,55.292c0.012,4.779,0.077,9.48-5.229,11.893
		c-0.203,0.094-0.22,0.592-0.409,1.156c0.717,0.182,1.344,0.48,1.972,0.48c12.715,0.029,25.429,0.047,38.143-0.018
		c0.968-0.006,2.396-0.348,2.823-1.029c3.038-4.822,5.87-9.773,8.769-14.684c-0.394-0.301-0.787-0.604-1.181-0.904
		c-1.776,1.561-3.576,3.098-5.324,4.691c-3.006,2.74-6.302,4.801-10.554,4.795c-5.949-0.008-11.899-0.063-17.847,0.029
		c-2.42,0.037-3.628-0.611-3.595-3.344c0.119-9.789,0.05-19.58,0.051-29.369c0.002-9.332-0.026-18.664,0.014-27.996
		c0.023-5.378,1.417-6.859,6.738-6.239c3.778,0.44,7.541,1.435,11.178,2.599c8.168,2.615,15.669,1.528,22.504-3.595
		c2.199-1.649,4.269-3.605,3.638-7.2c-1.064,0.479-1.947,0.758-2.705,1.234c-5.134,3.233-10.604,4.019-16.424,2.345
		c-7.012-2.017-14.022-1.998-21.062-0.123c-1.086,0.289-2.251,0.28-3.88,0.467c0-2.286-0.001-4.233,0-6.18
		c0-8.095,0.002-8.187,8.207-8.056c3.692,0.059,7.603-0.109,11.015,1.024c4.85,1.614,4.688,2.081,7.968-1.867
		C202.567,356.726,203.351,355.888,204.114,355.026z"/>
	<path fill-rule="evenodd" clip-rule="evenodd" fill="#FFFFFF" d="M745.311,356.777c-2.857-1.56-5.422-3.144-8.137-4.407
		c-8.461-3.941-16.555-3.102-24.107,2.34c-5.381,3.877-9.773,8.718-12.609,14.734c-9.619,20.413-10.113,41.073-1.416,61.942
		c13.92,33.396,43.963,48.863,77.986,39.84c5.006-1.326,9.688-3.879,14.521-5.863c-0.607-0.967-0.865-1.107-1.035-1.039
		c-1.293,0.525-2.557,1.125-3.854,1.641c-22.227,8.828-43.166,6.307-61.16-9.406c-20.365-17.781-28.254-40.803-23.926-67.669
		c1.186-7.367,2.941-14.633,7.174-21.012c6.926-10.438,20.002-14.078,29.932-8.311c3.92,2.279,3.988,2.566,1.66,6.408
		c-4.891,8.07-10.131,15.954-14.563,24.268c-5.211,9.771-9.791,19.89-10.191,31.298c-0.158,4.555,0.582,8.855,3.557,12.484
		c3.395,4.146,9.195,4.023,11.672-0.621c-0.938,0.359-1.529,0.584-2.121,0.813c-4.32,1.67-7.727,0.371-9.244-3.965
		c-0.746-2.131-1.334-4.697-0.85-6.805c1.424-6.211,2.596-12.695,5.369-18.334c5.232-10.641,11.199-20.958,17.434-31.056
		c8.613-13.947,15.203-28.605,17.564-44.906c0.566-3.914,0.084-7.98,0.084-11.977c-0.301-0.036-0.602-0.072-0.9-0.108
		C757.523,331.486,753.111,344.625,745.311,356.777z"/>
	<path fill-rule="evenodd" clip-rule="evenodd" fill="#FFFFFF" d="M121.172,322.396c-0.333-0.2-0.666-0.4-0.999-0.602
		c-3.492,0.697-6.976,1.948-10.479,2.003c-25.638,0.399-51.279,0.552-76.92,0.806c-1.681,0.018-3.359,0.219-5.214,0.347
		c0.235,0.741,0.239,1.214,0.442,1.325c5.696,3.122,5.736,8.499,5.717,13.978c-0.049,13.411-0.024,26.821-0.004,40.231
		c0.003,1.628,0.193,3.255,0.253,4.884c0.072,1.979,1.174,2.265,2.836,1.876c3.441-0.804,4.905-2.661,4.952-6.981
		c0.073-6.762-0.039-13.525-0.042-20.287c-0.004-7.917,0.109-15.836-0.008-23.751c-0.038-2.546,1.148-3.215,3.329-3.242
		c2.796-0.033,5.59-0.203,8.385-0.216c14.459-0.065,28.919-0.029,43.377-0.185c4.862-0.052,9.762-0.656,11.827,6.096
		C113.137,332.823,117.154,327.61,121.172,322.396z"/>
	<path fill-rule="evenodd" clip-rule="evenodd" fill="#FFFFFF" d="M42.314,396.53c-6.704,0.413-8.591,2.373-8.581,8.585
		c0.027,17.717,0.049,35.436,0.34,53.148c0.126,7.682-1.319,14.547-7.027,20.115c-1.009,0.982-1.516,2.479-2.255,3.738
		c0.267,0.271,0.532,0.543,0.798,0.816c6.584-4.568,13.965-6.615,22.692-6.754c-1.141-1.457-1.479-2.234-2.069-2.586
		c-3.345-1.988-4.26-5.295-4.257-8.705c0.016-18.305,0.227-36.609,0.354-54.916C42.341,405.506,42.314,401.039,42.314,396.53z"/>
	<path fill-rule="evenodd" clip-rule="evenodd" d="M701.994,449.695c-5.389,0-10.775,0-17.24,0c2.297-2.02,3.807-3.346,5.779-5.08
		c-15.895-15.688-34.039-27.414-55.023-36.172c-0.289,2.635-0.646,4.451-0.66,6.271c-0.059,8.748-0.041,17.498-0.018,26.246
		c0.014,4.678,1.193,6.375,4.686,6.941c3.746,0.605,6.287-0.936,7.529-5.09c1.832-6.137,3.398-12.354,5.076-18.535
		c0.152-0.563,0.141-1.262,0.48-1.662c0.855-1.006,1.867-1.879,2.816-2.805c0.518,1.355,1.682,2.838,1.441,4.041
		c-0.938,4.674-2.32,9.26-3.541,13.879c-0.238,0.9-0.436,1.816-0.738,2.695c-1.064,3.086-0.428,5.467,2.654,7.008
		c0.646,0.324,1.111,1.014,2.061,1.914c-11.047,0-21.496,0-31.947,0c-0.291-0.205-0.582-0.41-0.871-0.615
		c6.262-2.711,5.244-7.928,5.326-12.736c0.143-8.51,0.16-17.021,0.363-25.531c0.076-3.262-1.088-5.109-4.371-6.104
		c-7.379-2.23-7.406-2.398-10.002,4.883c-4.338,12.178-8.531,24.404-12.91,36.566c-0.498,1.379-1.795,2.469-2.723,3.691
		c-1.023-1.238-2.502-2.318-3-3.74c-5.041-14.4-9.887-28.869-14.871-43.289c-1.369-3.961-5.223-5.247-8.83-2.976
		c-0.674,0.425-1.119,1.708-1.139,2.606c-0.289,13.053-0.449,26.109-0.73,39.16c-0.076,3.555,1.389,5.996,5.021,7.227
		c-0.166,0.277-0.33,0.555-0.494,0.832c-4.689,0-9.379,0-14.068,0c5.988-4.002,4.627-9.93,4.662-15.367
		c0.064-9.797,0.02-19.596,0.02-29.395c0-1.139,0-2.279,0-3.983c-1.961,0.389-3.572,0.479-5.006,1.03
		c-7.924,3.045-15.826,6.154-23.689,9.35c-2.789,1.133-4.223,3.424-4.904,6.371c-1.916,8.283-5.391,15.865-10.713,22.539
		c-6.023,7.551-13.814,11.047-23.533,10.586c-6.002-0.285-12.027-0.053-17.963-0.053c-0.109-0.701-0.258-1.029-0.162-1.133
		c4.342-4.732,3.48-10.611,3.492-16.238c0.049-24.494,0.113-48.987-0.113-73.478c-0.027-2.829-1.846-5.642-2.908-8.676
		c-0.137,0.043,0.268-0.194,0.668-0.189c9.088,0.084,18.205-0.231,27.25,0.444c6.715,0.501,11.152,5.492,15.109,10.477
		c6.527,8.226,9.188,17.986,10.318,28.186c0.65,5.855,0.729,11.775,1.088,18.1c1.262-0.463,2.42-0.861,3.557-1.313
		c7.893-3.129,15.738-6.394,23.699-9.338c2.646-0.979,3.979-2.152,3.967-5.161c-0.045-10.727,0.354-21.458,0.109-32.177
		c-0.068-2.961-1.793-5.884-2.852-9.113c1.92,0,4.754-0.167,7.545,0.112c0.748,0.075,1.676,1.41,1.984,2.344
		c3.893,11.839,7.77,23.687,11.455,35.592c0.945,3.057,2.611,4.248,5.734,4.386c6.283,0.277,12.557,0.809,18.824,1.354
		c2.756,0.239,4.342-0.372,5.357-3.396c4.078-12.141,8.652-24.114,12.717-36.259c1.172-3.502,2.898-4.97,6.48-4.471
		c1.564,0.218,3.16,0.205,6,0.371c-5.787,4.269-4.641,9.581-4.723,14.603c-0.162,10.024-0.293,20.048-0.521,30.07
		c-0.088,3.912,0.766,6.916,4.859,8.68c16.25,6.998,31.377,15.9,44.973,27.301c0.42,0.352,0.91,0.619,1.369,0.926
		c0.363-0.135,0.727-0.271,1.092-0.406c-5.117-19.398-10.236-38.795-15.352-58.191c-0.311-0.012-0.619-0.023-0.928-0.034
		c-0.441,1.134-0.986,2.24-1.309,3.406c-2.918,10.555-5.785,21.123-8.697,31.679c-0.414,1.496-0.48,3.557-2.992,2.771
		c-2.203-0.689-1.805-2.313-1.352-3.994c4.174-15.527,8.191-31.096,12.559-46.566c1.225-4.341,3.453-8.398,5.318-12.814
		c0.988,0.769,1.316,0.929,1.297,1.021c-1.928,9.682,1.393,18.659,3.779,27.738c5.393,20.503,10.889,40.979,16.316,61.473
		c1.078,4.072,2.172,8.102,6.582,10.246C702.342,449.053,702.168,449.373,701.994,449.695z M515.393,427.436
		c-0.271-0.273-0.543-0.545-0.814-0.818c2.338-2.49,4.398-5.352,7.082-7.385c4.111-3.115,5.883-7.02,5.814-12.002
		c-0.016-1.162,0.162-2.326,0.17-3.49c0.078-11.756-1.143-23.322-6.34-34.04c-5.221-10.766-15.619-16.34-26.805-15.172
		c-3.086,0.322-3.973,1.411-3.959,4.519c0.129,26.575,0.072,53.15,0.082,79.727c0,1.162,0.156,2.326,0.139,3.488
		c-0.035,2.24,1.168,2.891,3.244,3.123c14.137,1.568,28.227-8.93,30.641-22.961c0.107-0.627,0.014-1.287,0.014-2.838
		C521.18,422.533,518.287,424.984,515.393,427.436z M600.293,431.902c3.863-10.85,7.389-20.748,11.014-30.927
		c-6.246-2.665-12.5-2.748-18.76-2.642c-3.377,0.058-3.887,0.807-2.807,4.115c2.602,7.969,5.268,15.916,7.979,23.85
		C598.268,427.898,599.127,429.391,600.293,431.902z M629.686,372.937c-0.314-0.101-0.627-0.202-0.939-0.303
		c-2.191,6.433-4.523,12.821-6.529,19.311c-1.51,4.888-1.027,5.47,3.928,6.61c1.076,0.248,2.201,0.287,3.541,0.451
		C629.686,390.069,629.686,381.503,629.686,372.937z M579.219,393.518c-1.982-5.682-3.748-10.738-5.512-15.794
		c-0.258,0.116-0.518,0.233-0.777,0.35c0,5.389,0,10.777,0,16.493C575.057,394.212,576.73,393.934,579.219,393.518z"/>
	<path fill-rule="evenodd" clip-rule="evenodd" d="M204.109,355.031c-0.759,0.856-1.542,1.694-2.272,2.573
		c-3.28,3.948-3.118,3.481-7.968,1.867c-3.412-1.134-7.322-0.966-11.015-1.024c-8.205-0.131-8.207-0.039-8.207,8.056
		c-0.001,1.946,0,3.894,0,6.18c1.629-0.187,2.794-0.178,3.88-0.467c7.039-1.875,14.05-1.894,21.062,0.123
		c5.819,1.674,11.29,0.889,16.424-2.345c0.758-0.477,1.641-0.756,2.705-1.234c0.631,3.595-1.438,5.551-3.638,7.2
		c-6.835,5.123-14.336,6.21-22.504,3.595c-3.637-1.164-7.399-2.158-11.178-2.599c-5.321-0.62-6.715,0.861-6.738,6.239
		c-0.04,9.332-0.012,18.664-0.014,27.996c-0.001,9.789,0.068,19.58-0.051,29.369c-0.033,2.732,1.175,3.381,3.595,3.344
		c5.947-0.092,11.897-0.037,17.847-0.029c4.252,0.006,7.548-2.055,10.554-4.795c1.748-1.594,3.548-3.131,5.324-4.691
		c0.394,0.301,0.787,0.604,1.181,0.904c-2.898,4.91-5.73,9.861-8.769,14.684c-0.428,0.682-1.855,1.023-2.823,1.029
		c-12.714,0.064-25.428,0.047-38.143,0.018c-0.628,0-1.255-0.299-1.972-0.48c0.189-0.564,0.206-1.063,0.409-1.156
		c5.307-2.412,5.241-7.113,5.229-11.893c-0.043-18.43-0.008-36.861-0.033-55.292c-0.003-1.8-0.223-3.6-0.379-5.968
		c-1.683,0.868-2.801,1.412-3.889,2.013c-7.724,4.266-15.673,4.865-23.863,1.473c-4.075-1.688-8.2-2.574-12.595-1.271
		c-2.166,0.643-3.42,1.833-3.419,4.199c0.01,19.362,0.012,38.726-0.011,58.091c-0.002,2.17,0.858,3.174,3.129,3.162
		c6.181-0.033,12.362-0.01,18.541,0.135c4.004,0.094,7.173-1.586,10.119-4.055c1.756-1.469,3.648-2.777,5.48-4.158
		c0.279,0.189,0.56,0.377,0.839,0.564c-0.541,1.379-1.152,2.736-1.612,4.143c-2.768,8.467-8.113,11.773-17.335,10.748
		c-8.872-0.988-17.939-0.215-26.922-0.215c-1.267,0-2.534,0-4.477,0c1.567-4.346,6.64-6.973,4.175-12.926
		c-1.668,3.051-3.302,5.467-4.358,8.113c-1.404,3.52-3.587,4.945-7.452,4.885c-12.353-0.193-24.711-0.07-38.007-0.07
		c1.035-1.287,1.47-2.174,2.18-2.646c2.689-1.791,3.861-4.373,3.866-7.436c0.027-19.012-0.01-38.023-0.063-57.036
		c-0.003-0.993-0.344-1.985-0.58-3.257c-1.181,0.397-2.077,0.6-2.886,0.985c-13.242,6.321-26.504,12.604-39.694,19.032
		c-6.704,3.268-11.655,8.486-15.229,14.971c-1.885,3.42-2.779,7.275-0.268,10.559c1.481,1.938,4.202,2.926,6.583,4.484
		c-2.558,1.08-4.91,0.348-6.962-1.676c-3.662-3.611-4.164-8.301-2.67-12.682c1.388-4.066,3.6-8.137,6.407-11.373
		c7.339-8.463,17.275-13.298,27.229-17.97c7.275-3.414,14.566-6.796,21.81-10.278c5.824-2.799,6.771-4.678,5.911-11.025
		c-0.031-0.231-0.055-0.463-0.079-0.695c-0.78-7.341-0.78-7.341-5.079-12.552c5.517-2.123,10.912-1.625,16.813-0.663
		c-1.668,2.578-3.713,4.653-4.406,7.109c-0.729,2.582-0.163,5.53-0.163,9.223c10.781-3.873,15.73-13.384,23.234-20.395
		c-0.38,1.225-0.581,2.544-1.169,3.658c-3.921,7.437-9.225,13.768-16.02,18.699c-4.487,3.258-6.286,7.372-6.189,12.866
		c0.344,19.585,0.451,39.173,0.657,58.761c0.007,0.688,0.109,1.373,0.164,2.012c8.223,0,16.422,0.707,24.435-0.215
		c6.948-0.801,12.816-9.396,12.816-16.48c0.001-19.596,0.001-39.192,0-58.79c-0.001-5.704,0.483-11.544-5.619-16.353
		c15.486-0.274,29.797-0.528,44.432-0.788c-1.123,4.648-4.842,8.107-8.839,11.695c-6.408-5.791-14.017-3.91-22.045-3.928
		c0,5.246,0,10.295,0,15.697c2.827-0.779,5.233-1.589,7.701-2.093c5.937-1.213,11.789-0.64,17.643,0.848
		c5.002,1.271,9.942,0.969,14.492-1.831c4.59-2.826,5.299-11.208,1.351-14.911c-1.298-1.217-2.345-2.702-3.506-4.063
		c0.125-0.33,0.251-0.659,0.376-0.987c14.555-0.364,29.108-0.727,44.182-1.104c-0.484,1.272-1.139,2.993-1.793,4.712
		L204.109,355.031z"/>
	<path fill-rule="evenodd" clip-rule="evenodd" d="M402.561,436.326c-2.206,1.91-4.289,3.756-6.418,5.549
		c-23.388,19.684-54.08,7.389-64.966-11.904c-10.341-18.324-12.084-44.484,2.796-62.793c16.204-19.937,43.406-22.905,62.89-6.206
		c1.669,1.431,3.302,2.903,5.044,4.438c0.982-0.919,1.83-1.71,2.674-2.505c21.139-19.85,50.936-16.636,67.461,7.278
		c15.055,21.786,11.938,51.732-7.285,69.969c-15.805,14.996-41.08,14.9-58.193-0.223
		C405.26,438.777,403.977,437.602,402.561,436.326z M434.625,354.835c-8.838-0.36-17.457,3.354-24.623,10.591
		c-4.273,4.315-4.23,4.817-1.512,10.309c4.746,9.583,7.611,19.744,5.74,30.381c-1.338,7.594-4.332,14.885-6.365,22.373
		c-0.422,1.559-0.527,3.891,0.334,5.008c14.855,19.225,47.102,16.779,58.313-4.502c9.41-17.865,9.723-36.16,1.023-54.407
		C461.27,361.445,450.734,354.779,434.625,354.835z M363.845,354.525c-8.31-0.232-22.355,8.829-27.832,21.945
		c-6.969,16.693-6.542,33.434,1.078,49.789c10.531,22.607,41.809,26.955,58.311,8.285c1.961-2.219,2.903-4.098,1.177-7.334
		c-9.454-17.725-9.4-35.637-0.078-53.459c1.292-2.47,1.126-4.519-0.697-6.71C388.838,358.67,379.719,355.08,363.845,354.525z
		 M401.814,421.193c6.273-9.049,5.934-35.157-0.311-40.754C396.809,393.99,396.7,407.178,401.814,421.193z"/>
	<path fill-rule="evenodd" clip-rule="evenodd" d="M203.983,355.149c1.689-1.721,3.425-3.398,5.053-5.175
		c1.188-1.297,2.117-1.476,3.874-0.6c1.982,0.988,4.415,1.464,6.656,1.479c17.265,0.114,34.53,0.056,51.795,0.078
		c1.593,0.002,3.184,0.2,5.908,0.385c-5.539,5.091-3.237,10.449-2.243,15.559c3.872,19.896,7.919,39.757,11.917,59.628
		c0.24,1.197,0.626,2.365,1.763,3.455c0.959-8.363,1.938-16.727,2.874-25.094c1.878-16.787,3.681-33.581,5.701-50.351
		c0.148-1.233,1.792-2.286,2.74-3.424c0.946,1.094,2.592,2.104,2.73,3.292c1.584,13.54,2.922,27.108,4.358,40.666
		c0.891,8.393,1.838,16.777,3.581,25.201c0.295-1.773,0.607-3.543,0.883-5.32c2.667-17.275,5.226-34.568,8.061-51.816
		c0.75-4.562,0.066-8.235-4.816-11.106c5.486-1.972,9.914-1.808,14.699-0.505c-5.954,6.185-5.076,14.109-6.19,21.283
		c-3.774,24.295-7.046,48.668-10.498,73.014c-0.282,1.99-0.341,4.217-3.087,4.254c-2.978,0.037-3.122-2.465-3.337-4.477
		c-1.702-15.982-3.3-31.975-4.956-47.964c-0.269-2.593-0.666-5.172-1.004-7.757c-0.29,0.009-0.581,0.019-0.872,0.027
		c-0.953,7.872-1.935,15.74-2.854,23.615c-1.229,10.533-2.351,21.078-3.657,31.6c-0.316,2.547-0.995,5.191-4.377,5.428
		c-3.359,0.234-4.817-0.992-5.658-5.223c-5.314-26.74-10.577-53.491-15.849-80.24c-1.312-6.651-1.297-6.655-8.082-6.655
		c-4.899-0.002-9.811,0.206-14.695-0.074c-3.213-0.185-4.061,1.104-3.976,4.005c0.129,4.429,0.052,8.865,0.021,13.298
		c-0.14,19.941-0.359,39.882-0.398,59.823c-0.01,5.018-1.615,10.68,4.767,13.875c-0.196,0.301-0.393,0.602-0.588,0.902
		c-5.073,0-10.147,0-15.63,0c0.524-0.877,0.729-1.586,1.2-1.943c2.566-1.951,3.415-4.623,3.415-7.68
		c0.004-26.133-0.02-52.265,0.036-78.395c0.006-2.751-0.79-4-3.785-3.868c-4.773,0.21-9.564,0.13-14.346,0.034
		c-4.852-0.096-9.634-0.109-13.335,4.05c-0.198-0.223-0.396-0.445-0.595-0.668c0.976-2.247,1.951-4.493,2.924-6.738
		C204.109,355.031,203.983,355.149,203.983,355.149z"/>
	<path fill-rule="evenodd" clip-rule="evenodd" d="M745.311,356.777c7.801-12.152,12.213-25.291,12.84-39.711
		c0.299,0.036,0.6,0.072,0.9,0.108c0,3.996,0.482,8.063-0.084,11.977c-2.361,16.301-8.951,30.959-17.564,44.906
		c-6.234,10.098-12.201,20.415-17.434,31.056c-2.773,5.639-3.945,12.123-5.369,18.334c-0.484,2.107,0.104,4.674,0.85,6.805
		c1.518,4.336,4.924,5.635,9.244,3.965c0.592-0.229,1.184-0.453,2.121-0.813c-2.477,4.645-8.277,4.768-11.672,0.621
		c-2.975-3.629-3.715-7.93-3.557-12.484c0.4-11.408,4.98-21.527,10.191-31.298c4.432-8.313,9.672-16.197,14.563-24.268
		c2.328-3.842,2.26-4.129-1.66-6.408c-9.93-5.768-23.006-2.128-29.932,8.311c-4.232,6.379-5.988,13.645-7.174,21.012
		c-4.328,26.866,3.561,49.888,23.926,67.669c17.994,15.713,38.934,18.234,61.16,9.406c1.297-0.516,2.561-1.115,3.854-1.641
		c0.17-0.068,0.428,0.072,1.035,1.039c-4.834,1.984-9.516,4.537-14.521,5.863c-34.023,9.023-64.066-6.443-77.986-39.84
		c-8.697-20.869-8.203-41.529,1.416-61.942c2.836-6.017,7.229-10.857,12.609-14.734c7.553-5.441,15.646-6.281,24.107-2.34
		C739.889,353.634,742.453,355.218,745.311,356.777z"/>
	<path fill-rule="evenodd" clip-rule="evenodd" d="M121.172,322.396c-4.018,5.214-8.035,10.427-12.547,16.281
		c-2.065-6.752-6.965-6.147-11.827-6.096c-14.458,0.155-28.918,0.119-43.377,0.185c-2.795,0.013-5.589,0.183-8.385,0.216
		c-2.181,0.027-3.367,0.696-3.329,3.242c0.117,7.915,0.004,15.834,0.008,23.751c0.003,6.762,0.115,13.525,0.042,20.287
		c-0.047,4.32-1.511,6.178-4.952,6.981c-1.662,0.389-2.764,0.104-2.836-1.876c-0.06-1.629-0.25-3.256-0.253-4.884
		c-0.021-13.41-0.045-26.82,0.004-40.231c0.02-5.479-0.021-10.855-5.717-13.978c-0.203-0.111-0.207-0.584-0.442-1.325
		c1.854-0.128,3.533-0.329,5.214-0.347c25.641-0.254,51.282-0.406,76.92-0.806c3.503-0.055,6.986-1.306,10.479-2.003
		C120.506,321.996,120.839,322.196,121.172,322.396z"/>
	<path fill-rule="evenodd" clip-rule="evenodd" d="M42.314,396.53c0,4.509,0.026,8.976-0.005,13.442
		c-0.128,18.307-0.339,36.611-0.354,54.916c-0.003,3.41,0.912,6.717,4.257,8.705c0.591,0.352,0.929,1.129,2.069,2.586
		c-8.728,0.139-16.108,2.186-22.692,6.754c-0.266-0.273-0.531-0.545-0.798-0.816c0.739-1.26,1.246-2.756,2.255-3.738
		c5.708-5.568,7.153-12.434,7.027-20.115c-0.291-17.713-0.313-35.432-0.34-53.148C33.724,398.903,35.61,396.943,42.314,396.53z"/>
</g>
</svg>
